<?xml version="1.0" encoding="UTF-8" standalone="no"?>
<svg
  id="svg5"
  width="500mm"
  height="500mm"
  version="1.1"
  viewBox="0 0 500 500"
  sodipodi:docname="ProjectLogo.svg"
  inkscape:version="1.4.2 (ebf0e940d0, 2025-05-08)"
  xmlns:inkscape="http://www.inkscape.org/namespaces/inkscape"
  xmlns:sodipodi="http://sodipodi.sourceforge.net/DTD/sodipodi-0.dtd"
  xmlns="http://www.w3.org/2000/svg"
  xmlns:svg="http://www.w3.org/2000/svg">
 <sodipodi:namedview
   id="namedview1"
   pagecolor="#ffffff"
   bordercolor="#000000"
   borderopacity="0.25"
   inkscape:showpageshadow="2"
   inkscape:pageopacity="0.0"
   inkscape:pagecheckerboard="0"
   inkscape:deskcolor="#d1d1d1"
   inkscape:document-units="mm"
   inkscape:zoom="0.26087917"
   inkscape:cx="942.96529"
   inkscape:cy="944.88189"
   inkscape:window-width="1366"
   inkscape:window-height="699"
   inkscape:window-x="0"
   inkscape:window-y="0"
   inkscape:window-maximized="1"
   inkscape:current-layer="layer1" />
 <defs
   id="defs2">
  <clipPath
    id="clipPath18"
    clipPathUnits="userSpaceOnUse">
   <path
     id="path16"
     d="M 0,24 H 24 V 0 H 0 Z" />
  </clipPath>
  <clipPath
    id="clipPath26"
    clipPathUnits="userSpaceOnUse">
   <path
     id="path24"
     d="M 2.00005,22 H 22 V 2.00005 H 2.00005 Z" />
  </clipPath>
  <clipPath
    id="clipPath42"
    clipPathUnits="userSpaceOnUse">
   <path
     id="path40"
     d="M 3,21 H 21 V 3 H 3 Z" />
  </clipPath>
  <clipPath
    id="clipPath58"
    clipPathUnits="userSpaceOnUse">
   <path
     id="path56"
     d="M 4,22 H 20 V 2 H 4 Z" />
  </clipPath>
  <clipPath
    id="clipPath74"
    clipPathUnits="userSpaceOnUse">
   <path
     id="path72"
     d="M 2,20 H 22 V 4 H 2 Z" />
  </clipPath>
  <clipPath
    id="clipPath90"
    clipPathUnits="userSpaceOnUse">
   <path
     id="path88"
     d="M 0,24 H 24 V 0 H 0 Z" />
  </clipPath>
  <clipPath
    id="clipPath100"
    clipPathUnits="userSpaceOnUse">
   <path
     id="path98"
     d="M 0,48 H 48 V 0 H 0 Z" />
  </clipPath>
  <clipPath
    id="clipPath108"
    clipPathUnits="userSpaceOnUse">
   <path
     id="path106"
     d="M 0,24 H 24 V 0 H 0 Z" />
  </clipPath>
  <clipPath
    id="clipPath116"
    clipPathUnits="userSpaceOnUse">
   <path
     id="path114"
     d="M -2.13623e-4,24.0002 H 23.9997 V 2.74658e-4 H -2.13623e-4 Z" />
  </clipPath>
  <clipPath
    id="clipPath120"
    clipPathUnits="userSpaceOnUse">
   <path
     id="path118"
     d="M -2.13623e-4,47.9998 H 47.9998 V -1.52588e-4 H -2.13623e-4 Z" />
  </clipPath>
  <clipPath
    id="clipPath124"
    clipPathUnits="userSpaceOnUse">
   <path
     id="path122"
     d="M 48,48 H 0 V 0 h 48 z" />
  </clipPath>
  <clipPath
    id="clipPath332"
    clipPathUnits="userSpaceOnUse">
   <path
     id="path330"
     d="M 0,24 H 24 V 0 H 0 Z" />
  </clipPath>
  <clipPath
    id="clipPath342"
    clipPathUnits="userSpaceOnUse">
   <path
     id="path340"
     d="M -2.28882e-4,48.0001 H 47.9998 V 1.2207e-4 H -2.28882e-4 Z" />
  </clipPath>
  <clipPath
    id="clipPath350"
    clipPathUnits="userSpaceOnUse">
   <path
     id="path348"
     d="M -2.28882e-4,48.0001 H 47.9998 V 1.2207e-4 H -2.28882e-4 Z" />
  </clipPath>
  <clipPath
    id="clipPath354"
    clipPathUnits="userSpaceOnUse">
   <path
     id="path352"
     d="M 0,0 H 48 V 48 H 0 Z" />
  </clipPath>
 </defs>
 <g
   id="layer1">
  <rect
    style="fill:#1a5fb4;stroke-width:.38521;stroke-linecap:round;stroke-linejoin:round"
    id="rect1030"
    width="500"
    height="471.036"
    x="0"
    y="28.964"
    ry="47.104" />
  <rect
    style="fill:#1c71d8;stroke-width:.38521;stroke-linecap:round;stroke-linejoin:round"
    id="rect846"
    width="500"
    height="471.036"
    x="0"
    y="0"
    ry="47.104" />
  <path
    style="fill:#ffffff;stroke-width:0.904713"
    d="m 106.75104,337.92316 c -0.76167,-1.58026 1.07721,-22.79692 2.92344,-33.72952 3.73235,-22.10143 12.83646,-46.22266 24.57456,-65.11023 9.15977,-14.73868 25.48527,-32.70449 38.63254,-42.51403 3.39809,-2.5355 6.1803,-5.02228 6.18246,-5.52629 0.002,-0.50393 -4.84981,-12.29126 -10.78227,-26.19404 -5.93247,-13.90281 -10.78633,-26.42142 -10.78633,-27.81913 0,-1.39771 0.4315,-3.09452 0.95879,-3.77063 1.25591,-1.61027 5.02086,-1.57829 6.03221,0.0511 0.43713,0.7043 5.772,12.94846 11.8552,27.2093 8.27237,19.39271 11.36958,25.79962 12.28663,25.41638 0.67432,-0.28186 5.90018,-2.58038 11.61295,-5.10795 31.87745,-14.10381 67.05571,-14.097 99.07416,0.0196 5.71277,2.51861 11.05127,4.66616 11.86344,4.77237 1.15283,0.15071 3.89258,-5.42228 12.49557,-25.41783 6.06045,-14.08598 11.45149,-26.21318 11.98002,-26.9493 0.5286,-0.73613 2.08999,-1.19711 3.46975,-1.02443 1.88178,0.2354 2.69298,0.99066 3.24664,3.02224 0.64942,2.38322 -0.61952,5.87411 -10.57215,29.08407 -6.22057,14.50667 -11.30157,26.65681 -11.2911,27.00036 0.0116,0.3434 3.1949,3.02545 7.07655,5.95988 10.68689,8.07924 19.25479,16.64114 28.28263,28.26283 10.32963,13.29764 17.58448,26.3149 24.09559,43.23449 7.95092,20.66085 11.61921,37.89188 12.92188,60.6978 l 0.54127,9.47604 H 250.33958 c -96.20307,0 -143.2506,-0.3415 -143.58854,-1.04275 z"
    id="path3" />
 </g>
</svg>
