<svg xmlns="http://www.w3.org/2000/svg" xmlns:svg="http://www.w3.org/2000/svg" id="svg5" width="500mm" height="500mm" version="1.1" viewBox="0 0 500 500"><defs id="defs2"><clipPath id="clipPath18" clipPathUnits="userSpaceOnUse"><path id="path16" d="M 0,24 H 24 V 0 H 0 Z"/></clipPath><clipPath id="clipPath26" clipPathUnits="userSpaceOnUse"><path id="path24" d="M 2.00005,22 H 22 V 2.00005 H 2.00005 Z"/></clipPath><clipPath id="clipPath42" clipPathUnits="userSpaceOnUse"><path id="path40" d="M 3,21 H 21 V 3 H 3 Z"/></clipPath><clipPath id="clipPath58" clipPathUnits="userSpaceOnUse"><path id="path56" d="M 4,22 H 20 V 2 H 4 Z"/></clipPath><clipPath id="clipPath74" clipPathUnits="userSpaceOnUse"><path id="path72" d="M 2,20 H 22 V 4 H 2 Z"/></clipPath><clipPath id="clipPath90" clipPathUnits="userSpaceOnUse"><path id="path88" d="M 0,24 H 24 V 0 H 0 Z"/></clipPath><clipPath id="clipPath100" clipPathUnits="userSpaceOnUse"><path id="path98" d="M 0,48 H 48 V 0 H 0 Z"/></clipPath><clipPath id="clipPath108" clipPathUnits="userSpaceOnUse"><path id="path106" d="M 0,24 H 24 V 0 H 0 Z"/></clipPath><clipPath id="clipPath116" clipPathUnits="userSpaceOnUse"><path id="path114" d="M -2.13623e-4,24.0002 H 23.9997 V 2.74658e-4 H -2.13623e-4 Z"/></clipPath><clipPath id="clipPath120" clipPathUnits="userSpaceOnUse"><path id="path118" d="M -2.13623e-4,47.9998 H 47.9998 V -1.52588e-4 H -2.13623e-4 Z"/></clipPath><clipPath id="clipPath124" clipPathUnits="userSpaceOnUse"><path id="path122" d="M 48,48 H 0 V 0 h 48 z"/></clipPath><clipPath id="clipPath332" clipPathUnits="userSpaceOnUse"><path id="path330" d="M 0,24 H 24 V 0 H 0 Z"/></clipPath><clipPath id="clipPath342" clipPathUnits="userSpaceOnUse"><path id="path340" d="M -2.28882e-4,48.0001 H 47.9998 V 1.2207e-4 H -2.28882e-4 Z"/></clipPath><clipPath id="clipPath350" clipPathUnits="userSpaceOnUse"><path id="path348" d="M -2.28882e-4,48.0001 H 47.9998 V 1.2207e-4 H -2.28882e-4 Z"/></clipPath><clipPath id="clipPath354" clipPathUnits="userSpaceOnUse"><path id="path352" d="M 0,0 H 48 V 48 H 0 Z"/></clipPath></defs><g id="layer1"><rect style="fill:#1a5fb4;stroke-width:.38521;stroke-linecap:round;stroke-linejoin:round" id="rect1030" width="500" height="471.036" x="0" y="28.964" ry="47.104"/><rect style="fill:#1c71d8;stroke-width:.38521;stroke-linecap:round;stroke-linejoin:round" id="rect846" width="500" height="471.036" x="0" y="0" ry="47.104"/><path style="fill:#fff;stroke-width:.380744" id="path883" d="m 228.13268,404.70239 c -2.93167,-2.01943 -5.33299,-6.37834 -6.64291,-12.05825 l -0.71614,-3.1052 -0.0831,-25.44791 -0.0831,-25.44792 -5.54302,-0.17069 c -5.39702,-0.1661 -5.58589,-0.2093 -7.17051,-1.63759 -3.24401,-2.92396 -5.45466,-7.71674 -6.47547,-14.03909 -0.52825,-3.27154 -0.54204,-5.13717 -0.54204,-73.29024 v -69.93324 h 49.12554 49.12554 v 68.86035 c 0,44.0465 -0.0997,69.87171 -0.27655,71.66695 -0.60369,6.12684 -2.55354,11.60546 -5.34957,15.03112 -2.33899,2.86574 -2.89918,3.08272 -8.78221,3.40171 l -5.48889,0.29759 -0.13722,25.61858 -0.1372,25.61858 -0.85787,3.43341 c -1.25602,5.02707 -2.53501,7.56889 -4.97616,9.88934 -2.0282,1.9279 -2.19775,1.99555 -5.0003,1.99555 -2.72389,0 -3.01245,-0.10591 -4.72902,-1.73287 -2.1493,-2.03728 -4.07408,-5.84595 -5.13055,-10.15202 l -0.71279,-2.90519 -0.13721,-25.88271 -0.13722,-25.88267 -7.34139,-0.1407 -7.34138,-0.14069 -0.007,24.17459 c -0.004,14.37243 -0.11932,25.11448 -0.28435,26.49255 -0.75292,6.28597 -2.72598,11.17952 -5.76418,14.29623 -1.55358,1.59375 -2.00944,1.80037 -4.35797,1.97535 -2.05346,0.15289 -2.93189,-0.0179 -4.04609,-0.78497 z M 182.30446,304.29637 c -3.36725,-2.40353 -5.82285,-7.42128 -6.80096,-13.89696 -0.38694,-2.56194 -0.42776,-8.33429 -0.36188,-51.19049 l 0.0742,-48.30297 0.89217,-3.42191 c 1.49779,-5.74484 3.6144,-9.31667 6.55778,-11.06643 5.33509,-3.17158 10.80359,1.55579 13.20273,11.41341 l 0.75396,3.09794 v 49.66369 49.66368 l -0.90032,3.51986 c -1.05187,4.11219 -2.90846,7.58739 -5.21277,9.75729 -2.08206,1.96056 -6.0148,2.32621 -8.20498,0.76289 z m 128.33471,0.25521 c -3.25351,-2.40564 -5.34249,-5.94915 -6.65795,-11.29371 l -0.87427,-3.55214 -0.0796,-47.80373 c -0.0558,-33.54742 0.011,-48.50318 0.22294,-50.1491 1.24347,-9.63782 5.6343,-16.34178 10.73702,-16.39346 1.74674,-0.0179 4.57899,1.75491 6.17857,3.86699 1.62706,2.14833 3.18691,5.98449 4.00672,9.85377 l 0.61553,2.90517 0.079,45.95499 c 0.053,30.87753 -0.0179,47.15583 -0.21594,49.61507 -0.55889,6.93734 -2.96815,13.11437 -6.25257,16.03076 -1.28419,1.1403 -2.04294,1.42009 -4.17649,1.54008 -1.71541,0.0965 -2.94092,-0.10003 -3.5828,-0.57469 z m -109.903,-132.91202 c -0.26163,-0.81481 0.37001,-11.75452 1.00417,-17.39157 1.28203,-11.39591 4.40921,-23.83327 8.44114,-33.57205 3.1463,-7.59954 8.75396,-16.86305 13.26993,-21.921029 1.16722,-1.307351 2.12288,-2.589582 2.12362,-2.84946 8.4e-4,-0.259835 -1.66586,-6.337603 -3.70361,-13.506138 -2.03775,-7.168547 -3.70501,-13.623376 -3.70501,-14.344061 0,-0.720686 0.14822,-1.595593 0.32934,-1.944208 0.43139,-0.830289 1.72462,-0.813798 2.07201,0.02635 0.15015,0.363148 1.98263,6.676469 4.07215,14.029624 2.84149,9.999242 3.90535,13.302763 4.22035,13.105157 0.23162,-0.145329 2.02666,-1.330491 3.98894,-2.633754 10.94962,-7.272188 23.03304,-7.268675 34.03109,0.01013 1.96228,1.298641 3.79601,2.405958 4.07498,2.460719 0.39599,0.07771 1.33707,-2.795826 4.29212,-13.105905 2.08171,-7.262997 3.93348,-13.516008 4.11503,-13.895566 0.18157,-0.379559 0.71789,-0.617251 1.19183,-0.528212 0.64637,0.121375 0.92501,0.510804 1.11519,1.558323 0.22307,1.228832 -0.2128,3.028799 -3.63144,14.996288 -2.13671,7.47991 -3.88199,13.744753 -3.87839,13.921892 0.004,0.177065 1.09742,1.559978 2.43073,3.073024 3.67085,4.165806 6.61385,8.580486 9.71483,14.572846 3.54813,6.85651 6.04011,13.56845 8.27662,22.29251 2.73107,10.65312 3.99109,19.53776 4.43855,31.29692 l 0.18592,4.88602 h -49.14872 c -33.04489,0 -49.20529,-0.17608 -49.32137,-0.53766 z M 229.42292,136.865 c 2.62441,-2.68421 2.96946,-9.17734 0.70415,-13.25066 -1.07256,-1.92861 -3.51529,-2.1643 -4.8251,-0.46557 -1.32917,1.72383 -1.97841,4.31829 -1.84275,7.3638 0.25771,5.78475 3.32462,9.05158 5.9637,6.35243 z m 45.23087,-0.45602 c 3.29825,-4.73149 1.73344,-14.41249 -2.32961,-14.41249 -3.66001,0 -5.56133,8.03659 -3.08131,13.02412 0.51192,1.02949 1.17776,2.08354 1.47964,2.34234 0.87769,0.75245 3.12129,0.20798 3.93128,-0.95397 z"/></g></svg>