<?xml version="1.0" encoding="UTF-8" standalone="no"?>
<svg
 xmlns:dc="http://purl.org/dc/elements/1.1/"
 xmlns:cc="http://creativecommons.org/ns#"
 xmlns:rdf="http://www.w3.org/1999/02/22-rdf-syntax-ns#"
 xmlns:svg="http://www.w3.org/2000/svg"
 xmlns="http://www.w3.org/2000/svg"
 xmlns:sodipodi="http://sodipodi.sourceforge.net/DTD/sodipodi-0.dtd"
 xmlns:inkscape="http://www.inkscape.org/namespaces/inkscape"
 width="500mm"
 height="500mm"
 viewBox="0 0 500 500"
 version="1.1"
 id="svg8"
 inkscape:version="1.0.1 (3bc2e813f5, 2020-09-07)"
 sodipodi:docname="iKON.svg"
 inkscape:export-filename="/home/kushagra/Projects/Debloat/Xperiments/iKON.png"
 inkscape:export-xdpi="95.405197"
 inkscape:export-ydpi="95.405197">
<defs
 id="defs2" />
<sodipodi:namedview
 id="base"
 pagecolor="#ffffff"
 bordercolor="#666666"
 borderopacity="1.0"
 inkscape:pageopacity="0.0"
 inkscape:pageshadow="2"
 inkscape:zoom="0.14539405"
 inkscape:cx="506.11594"
 inkscape:cy="1046.5298"
 inkscape:document-units="mm"
 inkscape:current-layer="layer1"
 inkscape:document-rotation="0"
 showgrid="false"
 inkscape:snap-page="true"
 inkscape:window-width="1366"
 inkscape:window-height="714"
 inkscape:window-x="0"
 inkscape:window-y="0"
 inkscape:window-maximized="1" />
<metadata
 id="metadata5">
<rdf:RDF>
<cc:Work
 rdf:about="">
<dc:format>image/svg+xml</dc:format>
<dc:type
 rdf:resource="http://purl.org/dc/dcmitype/StillImage" />
<dc:title />
</cc:Work>
</rdf:RDF>
</metadata>
<g
 inkscape:label="Layer 1"
 inkscape:groupmode="layer"
 id="layer1">
<path
 id="path82884"
 style="fill:#ffffff;stroke-width:4.31327"
 d="M 391.52344 720.53125 L 391.52344 1642.5898 C 391.52344 1697.968 428.44406 1734.8887 483.82227 1734.8887 L 1405.9414 1734.877 L 1405.9414 1734.8809 C 1461.3282 1734.8809 1498.2402 1697.9539 1498.2402 1642.5801 L 1498.2402 720.53125 L 391.52344 720.53125 z M 1055.7617 1036.7656 C 1093.9697 1036.7656 1126.418 1064.6066 1126.418 1107.8066 C 1126.418 1150.8146 1093.9697 1178.6543 1055.7617 1178.6543 C 1017.3617 1178.6543 984.91406 1150.8146 984.91406 1107.8066 C 984.91406 1064.6066 1017.3617 1036.7656 1055.7617 1036.7656 z M 517.58594 1039.6465 L 566.92969 1039.6465 C 607.82569 1039.6465 635.2832 1065.7586 635.2832 1107.8066 C 635.2832 1149.8546 607.82628 1175.7734 566.73828 1175.7734 L 517.58594 1175.7734 L 517.58594 1039.6465 z M 656.97852 1039.6465 L 743.1875 1039.6465 L 743.1875 1068.2539 L 687.31445 1068.2539 L 687.31445 1094.1738 L 738.00195 1094.1738 L 738.00195 1120.8613 L 687.31445 1120.8613 L 687.31445 1146.9746 L 743.37891 1146.9746 L 743.37891 1175.7734 L 656.97852 1175.7734 L 656.97852 1039.6465 z M 768.91406 1039.6465 L 819.79492 1039.6465 C 846.67492 1039.6465 862.22656 1055.199 862.22656 1076.127 C 862.22656 1090.143 853.39381 1101.6625 842.25781 1105.3105 C 854.54581 1108.1905 866.45117 1119.5176 866.45117 1137.1816 C 866.45117 1159.4536 849.55417 1175.7734 823.82617 1175.7734 L 768.91406 1175.7734 L 768.91406 1039.6465 z M 887.37891 1039.6465 L 917.71484 1039.6465 L 917.71484 1146.7812 L 976.4668 1146.7812 L 976.4668 1175.7734 L 887.37891 1175.7734 L 887.37891 1039.6465 z M 1179.0254 1039.6465 L 1214.1621 1039.6465 L 1264.8496 1175.7734 L 1231.8262 1175.7734 L 1222.0332 1148.127 L 1169.4258 1148.127 L 1159.6328 1175.7734 L 1127.7617 1175.7734 L 1179.0254 1039.6465 z M 1257.9375 1039.6465 L 1372.1777 1039.6465 L 1372.1777 1068.6387 L 1330.1289 1068.6387 L 1330.1289 1175.7734 L 1299.793 1175.7734 L 1299.793 1068.6387 L 1257.9375 1068.6387 L 1257.9375 1039.6465 z M 798.48242 1064.7988 L 798.48242 1094.1738 L 814.99414 1094.1738 C 825.55414 1094.1738 832.4668 1088.6066 832.4668 1079.3906 C 832.4668 1070.5586 826.51337 1064.7988 814.60938 1064.7988 L 798.48242 1064.7988 z M 1055.7617 1066.334 C 1036.7537 1066.334 1016.4023 1079.1973 1016.4023 1107.6133 C 1016.4023 1136.0293 1036.7537 1148.7012 1055.7617 1148.7012 C 1074.5777 1148.7012 1094.9297 1136.0293 1094.9297 1107.6133 C 1094.9297 1079.1973 1074.5777 1066.334 1055.7617 1066.334 z M 547.92188 1068.2539 L 547.92188 1147.166 L 565.58594 1147.166 C 586.51394 1147.166 603.60352 1135.0706 603.60352 1107.8066 C 603.60352 1080.5426 586.51394 1068.2539 565.58594 1068.2539 L 547.92188 1068.2539 z M 1196.1133 1073.4375 L 1179.4102 1120.4785 L 1212.4336 1120.4785 L 1196.1133 1073.4375 z M 798.48242 1119.1348 L 798.48242 1151.0059 L 817.49023 1151.0059 C 829.20223 1151.0059 836.30664 1144.8623 836.30664 1135.0703 C 836.30664 1125.6623 829.39423 1119.1348 817.49023 1119.1348 L 798.48242 1119.1348 z "
 transform="scale(0.26458333)" />
<path
 id="rect82988"
 style="fill:#ffffff;stroke-width:0.503938"
 d="M 249.99954,40.977299 A 146.40883,146.40883 0 0 0 103.59153,187.38665 H 396.40888 A 146.40883,146.40883 0 0 0 249.99954,40.977299 Z m -61.03747,66.746741 c 10.10324,0 18.29479,8.19042 18.29479,18.29479 0,10.10437 -8.19155,18.29546 -18.29479,18.29546 -10.10323,0 -18.29546,-8.19109 -18.29546,-18.29546 0,-10.10437 8.19109,-18.29479 18.29546,-18.29479 z m 122.07627,0 c 10.10323,0 18.29479,8.19042 18.29479,18.29479 0,10.10437 -8.19042,18.29546 -18.29479,18.29546 -10.10324,0 -18.29479,-8.19109 -18.29479,-18.29546 0,-10.10437 8.19042,-18.29479 18.29479,-18.29479 z" />
</g>
</svg>
