<?xml version="1.0" encoding="UTF-8" standalone="no"?>
<svg
   xmlns:dc="http://purl.org/dc/elements/1.1/"
   xmlns:cc="http://creativecommons.org/ns#"
   xmlns:rdf="http://www.w3.org/1999/02/22-rdf-syntax-ns#"
   xmlns:svg="http://www.w3.org/2000/svg"
   xmlns="http://www.w3.org/2000/svg"
   xmlns:sodipodi="http://sodipodi.sourceforge.net/DTD/sodipodi-0.dtd"
   xmlns:inkscape="http://www.inkscape.org/namespaces/inkscape"
   width="297mm"
   height="210mm"
   viewBox="0 0 297 210"
   version="1.1"
   id="svg8"
   inkscape:version="1.0.2 (e86c870879, 2021-01-15)"
   sodipodi:docname="S1 (copy).svg">
  <defs
     id="defs2" />
  <sodipodi:namedview
     id="base"
     pagecolor="#ffffff"
     bordercolor="#666666"
     borderopacity="1.0"
     inkscape:pageopacity="0.0"
     inkscape:pageshadow="2"
     inkscape:zoom="0.5858631"
     inkscape:cx="430.57658"
     inkscape:cy="352.84481"
     inkscape:document-units="mm"
     inkscape:current-layer="layer1"
     inkscape:document-rotation="0"
     showgrid="false"
     inkscape:snap-page="true"
     inkscape:window-width="1366"
     inkscape:window-height="704"
     inkscape:window-x="0"
     inkscape:window-y="0"
     inkscape:window-maximized="1"
     inkscape:snap-global="false" />
  <metadata
     id="metadata5">
    <rdf:RDF>
      <cc:Work
         rdf:about="">
        <dc:format>image/svg+xml</dc:format>
        <dc:type
           rdf:resource="http://purl.org/dc/dcmitype/StillImage" />
        <dc:title />
      </cc:Work>
    </rdf:RDF>
  </metadata>
  <g
     inkscape:label="Layer 1"
     inkscape:groupmode="layer"
     id="layer1">
    <rect
       style="fill:#1c71d8;stroke:none;stroke-width:4.99999"
       id="rect833"
       width="297"
       height="210"
       x="0"
       y="0" />
    <path
       style="fill:#33d17a;stroke-width:0.0887199"
       d="m 36.643277,141.89473 c -1.628922,-0.26221 -2.936198,-1.02861 -3.453808,-2.02481 -0.205999,-0.39648 -0.217167,-0.71958 -0.217167,-6.27976 v -5.86178 l -4.447218,-0.0202 c -4.931184,-0.0224 -4.836001,-0.0136 -5.265398,-0.48432 -0.192436,-0.21096 -0.204526,-1.09923 -0.232557,-17.09711 l -0.02956,-16.874604 h 36.05377 36.053771 l -0.03002,16.908934 c -0.0298,16.78263 -0.03175,16.91068 -0.25984,17.14324 -0.386494,0.39405 -0.556246,0.40699 -5.413321,0.41279 l -4.382228,0.006 -0.03105,6.02903 -0.03105,6.02903 -0.427085,0.51759 c -0.665866,0.80696 -1.824992,1.38007 -3.236539,1.60024 -0.98468,0.1536 -8.977391,0.15673 -9.956894,0.004 -1.657423,-0.2586 -2.923406,-0.9508 -3.550487,-1.9413 -0.247855,-0.39149 -0.249418,-0.42628 -0.282395,-6.29892 l -0.03312,-5.90524 -8.480048,-0.0176 -8.480047,-0.0176 -0.0023,5.71686 c -0.0023,6.21725 -0.0092,6.29337 -0.641365,6.98918 -0.369551,0.40671 -1.41394,1.02194 -2.080761,1.22571 -1.070348,0.32709 -1.510042,0.35189 -6.155227,0.34708 -3.4591,-0.003 -4.490329,-0.0254 -4.988259,-0.10556 z m -25.5917,-20.03264 c -1.4873472,-0.30364 -2.6825904,-0.97605 -3.1568942,-1.776 -0.107318,-0.18093 -0.234535,-0.32897 -0.2827764,-0.32897 -0.048309,0 -0.087764,-5.45378 -0.087764,-12.1195 0,-8.033894 0.038648,-12.119504 0.1146801,-12.119504 0.063033,0 0.1146801,-0.0495 0.1146801,-0.11012 0,-0.0606 0.1878925,-0.32431 0.4175391,-0.58609 0.5052683,-0.57597 1.3044936,-1.02899 2.3336063,-1.32274 l 0.745107,-0.21268 h 3.100981 3.100981 l 0.864169,0.25583 c 1.347213,0.39885 2.303965,1.09316 2.671549,1.93873 0.157475,0.36222 0.177758,1.75914 0.17655,12.153834 -0.0011,9.58707 -0.02957,11.80765 -0.154704,12.0879 -0.491224,1.0999 -1.847905,1.91258 -3.684088,2.20682 -0.39542,0.0634 -1.337412,0.0916 -3.037729,0.0909 -2.266479,-6.9e-4 -2.52656,-0.0136 -3.235836,-0.15841 z m 89.782373,0.0626 c -1.831479,-0.30576 -3.269745,-1.20761 -3.653834,-2.29112 -0.0927,-0.26145 -0.128996,-3.65428 -0.128996,-12.05357 0,-10.343344 0.02047,-11.736834 0.177908,-12.098954 0.367572,-0.84558 1.324335,-1.53989 2.671549,-1.93873 l 0.864153,-0.25583 h 3.101 3.10098 l 0.77968,0.22121 c 1.46214,0.41485 2.52515,1.23572 2.82573,2.18209 0.0957,0.30136 0.1217,3.57403 0.0968,12.188164 l -0.034,11.77616 -0.26054,0.38585 c -0.61039,0.90392 -1.79679,1.56397 -3.31657,1.84515 -0.65508,0.12121 -1.04723,0.13723 -3.22686,0.13183 -1.60802,-0.004 -2.66269,-0.0365 -2.99699,-0.0922 z M 22.961174,91.627126 c -0.09213,-0.0549 0.186316,-2.35748 0.378362,-3.12832 1.356048,-5.4432 6.079612,-10.336924 13.306248,-13.785584 0.618015,-0.294926 1.28334,-0.59273 1.478502,-0.661787 0.195163,-0.06906 0.332191,-0.160914 0.304506,-0.204128 -0.02773,-0.04322 -0.921267,-0.800954 -1.985751,-1.683869 -3.139146,-2.603705 -4.158701,-3.471136 -4.155803,-3.53573 0.0047,-0.10781 1.486831,-0.67277 1.58781,-0.605295 0.05245,0.03507 1.387417,1.145745 2.966531,2.468172 1.579114,1.322427 2.971739,2.478847 3.094724,2.569822 l 0.223596,0.16541 1.249363,-0.420582 c 8.244604,-2.775439 18.3175,-3.477066 27.410592,-1.909285 2.881884,0.496877 5.452257,1.132577 7.744306,1.915303 l 1.121006,0.382822 0.518117,-0.425315 c 0.284949,-0.233922 1.689113,-1.405952 3.120339,-2.604508 1.431229,-1.198557 2.640529,-2.179618 2.687331,-2.180136 0.04681,-5.18e-4 0.419173,0.143014 0.827476,0.31896 l 0.742368,0.319902 -0.381996,0.315255 c -2.50152,2.06445 -5.72238,4.789647 -5.731709,4.849651 -0.0068,0.04194 0.509489,0.312146 1.146691,0.600456 4.591908,2.077661 8.305993,4.781506 10.773315,7.842966 2.191298,2.71898 3.367033,5.4826 3.56391,8.37722 l 0.07005,1.02998 H 59.000669 c -19.811209,0 -36.028981,-0.005 -36.039495,-0.0114 z m 23.480285,-5.73545 c 1.328648,-0.19705 2.664625,-0.88365 3.314409,-1.7034 0.331882,-0.41869 0.353793,-0.49544 0.353793,-1.23954 0,-0.7783 -0.008,-0.80302 -0.430167,-1.31458 -1.001186,-1.213466 -3.201835,-1.92656 -5.302116,-1.718087 -2.083449,0.206803 -3.712716,1.090229 -4.253228,2.306197 -0.440727,0.99149 0.119079,2.15375 1.397445,2.90138 1.313523,0.76818 3.069995,1.04238 4.919864,0.76803 z m 29.015703,-0.0265 c 1.203802,-0.1974 2.436003,-0.83256 3.053225,-1.57386 1.539972,-1.84953 -0.387909,-4.029678 -3.868943,-4.375205 -2.100279,-0.208473 -4.30093,0.504621 -5.302114,1.718085 -0.422129,0.51163 -0.430159,0.53617 -0.429964,1.31458 2.31e-4,0.74347 0.02232,0.82121 0.353334,1.23955 1.127551,1.42512 3.618108,2.09932 6.194462,1.67685 z"
       id="path900" />
    <path
       style="fill:#33d17a;stroke-width:0.0686657"
       d="m 245.41223,141.89473 c -0.97574,-0.26221 -1.75882,-1.02861 -2.06888,-2.02481 -0.12339,-0.39648 -0.13008,-0.71958 -0.13008,-6.27976 v -5.86178 l -2.66395,-0.0202 c -2.95385,-0.0224 -2.89683,-0.0136 -3.15405,-0.48432 -0.11527,-0.21096 -0.12251,-1.09923 -0.1393,-17.09711 l -0.0177,-16.874604 h 21.59672 21.59672 l -0.018,16.908934 c -0.0179,16.78263 -0.019,16.91068 -0.15565,17.14324 -0.23151,0.39405 -0.3332,0.40699 -3.24265,0.41279 l -2.62502,0.006 -0.0186,6.02903 -0.0186,6.02903 -0.25583,0.51759 c -0.39886,0.80696 -1.0932,1.38007 -1.93873,1.60024 -0.58984,0.1536 -5.37759,0.15673 -5.96433,0.004 -0.99282,-0.2586 -1.75116,-0.9508 -2.12679,-1.9413 -0.14847,-0.39149 -0.1494,-0.42628 -0.16916,-6.29892 l -0.0198,-5.90524 -5.07967,-0.0176 -5.07966,-0.0176 -0.001,5.71686 c -0.001,6.21725 -0.006,6.29337 -0.38419,6.98918 -0.22137,0.40671 -0.84697,1.02194 -1.24641,1.22571 -0.64115,0.32709 -0.90453,0.35189 -3.68707,0.34708 -2.07205,-0.003 -2.68977,-0.0254 -2.98803,-0.10556 z m -15.32979,-20.03264 c -0.89094,-0.30364 -1.60691,-0.97605 -1.89102,-1.776 -0.0643,-0.18093 -0.14049,-0.32897 -0.16939,-0.32897 -0.0289,0 -0.0526,-5.45378 -0.0526,-12.1195 0,-8.033894 0.0232,-12.119504 0.0687,-12.119504 0.0378,0 0.0687,-0.0495 0.0687,-0.11012 0,-0.0606 0.11255,-0.32431 0.25011,-0.58609 0.30266,-0.57597 0.78141,-1.02899 1.39786,-1.32274 l 0.44633,-0.21268 h 1.85753 1.85754 l 0.51764,0.25583 c 0.807,0.39885 1.38011,1.09316 1.6003,1.93873 0.0943,0.36222 0.10648,1.75914 0.10576,12.153834 -6.9e-4,9.58707 -0.0177,11.80765 -0.0927,12.0879 -0.29425,1.0999 -1.10692,1.91258 -2.20682,2.20682 -0.23687,0.0634 -0.80113,0.0916 -1.81965,0.0909 -1.35765,-6.9e-4 -1.51344,-0.0136 -1.93831,-0.15841 z m 53.78092,0.0626 c -1.09708,-0.30576 -1.95862,-1.20761 -2.1887,-2.29112 -0.0555,-0.26145 -0.0773,-3.65428 -0.0773,-12.05357 0,-10.343344 0.0123,-11.736834 0.10657,-12.098954 0.22018,-0.84558 0.7933,-1.53989 1.6003,-1.93873 l 0.51764,-0.25583 h 1.85754 1.85753 l 0.46704,0.22121 c 0.87584,0.41485 1.5126,1.23572 1.69265,2.18209 0.0573,0.30136 0.0729,3.57403 0.058,12.188164 l -0.0204,11.77616 -0.15607,0.38585 c -0.36563,0.90392 -1.0763,1.56397 -1.98667,1.84515 -0.3924,0.12121 -0.62731,0.13723 -1.93293,0.13183 -0.96323,-0.004 -1.59499,-0.0365 -1.79525,-0.0922 z m -46.6469,-30.297564 c -0.0552,-0.0549 0.1116,-2.35748 0.22664,-3.12832 0.81229,-5.4432 3.64178,-10.336924 7.97063,-13.785584 0.3702,-0.294926 0.76874,-0.59273 0.88565,-0.661787 0.1169,-0.06906 0.19899,-0.160914 0.1824,-0.204128 -0.0166,-0.04322 -0.55185,-0.800954 -1.18949,-1.683869 -1.88039,-2.603705 -2.49112,-3.471136 -2.48939,-3.53573 0.003,-0.10781 0.89064,-0.67277 0.95112,-0.605295 0.0314,0.03507 0.83109,1.145745 1.777,2.468172 0.94591,1.322427 1.78011,2.478847 1.85378,2.569822 l 0.13394,0.16541 0.74839,-0.420582 c 4.93863,-2.775439 10.97244,-3.477066 16.41933,-1.909285 1.72629,0.496877 3.26598,1.132577 4.63895,1.915303 l 0.6715,0.382822 0.31036,-0.425315 c 0.17069,-0.233922 1.0118,-1.405952 1.86913,-2.604508 0.85732,-1.198557 1.58171,-2.179618 1.60974,-2.180136 0.028,-5.18e-4 0.2511,0.143014 0.49567,0.31896 l 0.44469,0.319902 -0.22882,0.315255 c -1.49844,2.06445 -3.42778,4.789647 -3.43337,4.849651 -0.004,0.04194 0.30519,0.312146 0.68688,0.600456 2.75062,2.077661 4.97541,4.781506 6.45337,7.842966 1.31262,2.71898 2.0169,5.4826 2.13483,8.37722 l 0.042,1.02998 h -21.57676 c -11.8672,0 -21.58187,-0.005 -21.58817,-0.0114 z m 14.06502,-5.73545 c 0.79588,-0.19705 1.59615,-0.88365 1.98538,-1.7034 0.1988,-0.41869 0.21193,-0.49544 0.21193,-1.23954 0,-0.7783 -0.005,-0.80302 -0.25768,-1.31458 -0.59972,-1.213466 -1.91794,-1.92656 -3.17604,-1.718087 -1.24802,0.206803 -2.22397,1.090229 -2.54774,2.306197 -0.26401,0.99149 0.0713,2.15375 0.83708,2.90138 0.78682,0.76818 1.83898,1.04238 2.94707,0.76803 z m 17.38082,-0.0265 c 0.7211,-0.1974 1.4592,-0.83256 1.82893,-1.57386 0.92246,-1.84953 -0.23237,-4.029678 -2.31755,-4.375205 -1.2581,-0.208473 -2.57632,0.504621 -3.17605,1.718085 -0.25286,0.51163 -0.25767,0.53617 -0.25755,1.31458 1.4e-4,0.74347 0.0134,0.82121 0.21165,1.23955 0.67542,1.42512 2.1673,2.09932 3.71057,1.67685 z"
       id="path904" />
    <g
       id="g919"
       transform="translate(-1.7943988,-2.3815495)"
       style="fill:#e5a50a">
      <path
         d="m 212.79507,109.94695 h -92.92036 v -5.2324 h 92.92036 z"
         style="font-size:50.8px;line-height:1.25;font-family:'Circular Std Medium';-inkscape-font-specification:'Circular Std Medium, ';stroke-width:0.673847;fill:#e5a50a"
         id="path910" />
      <path
         d="m 215.6391,105.01935 v 4.7752 l -21.4376,10.7188 v -5.588 l 15.4432,-7.5184 -15.4432,-7.467601 v -5.6896 z"
         style="font-size:50.8px;line-height:1.25;font-family:'Circular Std Medium';-inkscape-font-specification:'Circular Std Medium, ';stroke-width:0.264583;fill:#e5a50a"
         id="path912" />
    </g>
    <text
       xml:space="preserve"
       style="font-size:10.5833px;line-height:1.25;font-family:'Circular Std Medium';-inkscape-font-specification:'Circular Std Medium, ';stroke-width:0.264583;fill:#e5a50a;"
       x="135.06999"
       y="96.907684"
       id="text923"><tspan
         sodipodi:role="line"
         id="tspan921"
         x="135.06999"
         y="96.907684"
         style="stroke-width:0.264583;fill:#e5a50a;">DEBLOAT</tspan></text>
  </g>
</svg>
