<?xml version="1.0" encoding="UTF-8" standalone="no"?>
<svg
   xmlns:dc="http://purl.org/dc/elements/1.1/"
   xmlns:cc="http://creativecommons.org/ns#"
   xmlns:rdf="http://www.w3.org/1999/02/22-rdf-syntax-ns#"
   xmlns:svg="http://www.w3.org/2000/svg"
   xmlns="http://www.w3.org/2000/svg"
   xmlns:sodipodi="http://sodipodi.sourceforge.net/DTD/sodipodi-0.dtd"
   xmlns:inkscape="http://www.inkscape.org/namespaces/inkscape"
   width="297mm"
   height="210mm"
   viewBox="0 0 297 210"
   version="1.1"
   id="svg8"
   inkscape:version="1.0.2 (e86c870879, 2021-01-15)"
   sodipodi:docname="S1.svg">
  <defs
     id="defs2" />
  <sodipodi:namedview
     id="base"
     pagecolor="#ffffff"
     bordercolor="#666666"
     borderopacity="1.0"
     inkscape:pageopacity="0.0"
     inkscape:pageshadow="2"
     inkscape:zoom="0.27529269"
     inkscape:cx="21.496768"
     inkscape:cy="615.64572"
     inkscape:document-units="mm"
     inkscape:current-layer="layer1"
     inkscape:document-rotation="0"
     showgrid="false"
     inkscape:snap-page="true"
     inkscape:window-width="1366"
     inkscape:window-height="704"
     inkscape:window-x="0"
     inkscape:window-y="0"
     inkscape:window-maximized="1" />
  <metadata
     id="metadata5">
    <rdf:RDF>
      <cc:Work
         rdf:about="">
        <dc:format>image/svg+xml</dc:format>
        <dc:type
           rdf:resource="http://purl.org/dc/dcmitype/StillImage" />
        <dc:title />
      </cc:Work>
    </rdf:RDF>
  </metadata>
  <g
     inkscape:label="Layer 1"
     inkscape:groupmode="layer"
     id="layer1">
    <path
       id="rect833"
       style="fill:#1c71d8;stroke:none;stroke-width:4.99999"
       d="M 0,0 H 297 V 210 H 0 Z" />
    <g
       aria-label="PROJECT
DEBLOAT"
       id="text837"
       style="font-size:50.8px;line-height:1.25;font-family:'Circular Std Medium';-inkscape-font-specification:'Circular Std Medium, ';fill:#ffffff;stroke-width:0.264583">
      <path
         d="m 42.633036,71.802199 h 6.35 q 2.8956,0 4.5212,-1.4732 1.6764,-1.524 1.6764,-4.064 0,-2.5908 -1.6764,-4.1148 -1.6256,-1.524 -4.5212,-1.524 h -6.35 z m 7.2644,5.3848 h -7.2644 v 14.071599 h -6.096 V 55.241399 h 13.3604 q 5.1308,0 8.2804,3.0988 3.2004,3.0988 3.2004,7.874 0,4.826 -3.2004,7.9248 -3.1496,3.048 -8.2804,3.048 z"
         style="font-size:50.8px;fill:#ffffff;stroke-width:0.264583"
         id="path834" />
      <path
         d="m 85.203357,91.258598 -7.5692,-14.223999 h -4.4704 v 14.223999 h -6.1468 V 55.241399 h 13.8176 q 5.08,0 8.1788,3.1496 3.0988,3.0988 3.0988,7.7724 0,3.8608 -2.1844,6.604 -2.1844,2.7432 -5.9436,3.6576 l 8.128,14.833599 z m -12.0396,-19.608799 h 6.5532 q 2.794,0 4.4704,-1.4732 1.7272,-1.524 1.7272,-4.0132 0,-2.54 -1.7272,-4.0132 -1.6764,-1.524 -4.4704,-1.524 h -6.5532 z"
         style="font-size:50.8px;fill:#ffffff;stroke-width:0.264583"
         id="path836" />
      <path
         d="m 105.98049,63.674199 q -3.556,3.4036 -3.556,9.5504 0,6.1468 3.556,9.601199 3.556,3.4036 8.4836,3.4036 4.9276,0 8.4836,-3.4036 3.6068,-3.454399 3.6068,-9.601199 0,-6.1468 -3.6068,-9.5504 -3.556,-3.4544 -8.4836,-3.4544 -4.9276,0 -8.4836,3.4544 z m -7.213598,19.608799 q -2.5908,-4.368799 -2.5908,-10.058399 0,-5.6896 2.5908,-10.0076 2.641598,-4.3688 6.756398,-6.5532 4.1148,-2.1844 8.9408,-2.1844 4.826,0 8.9408,2.1844 4.1148,2.1844 6.7564,6.5532 2.6416,4.318 2.6416,10.0076 0,5.6896 -2.6416,10.058399 -2.6416,4.3688 -6.7564,6.5532 -4.1148,2.1844 -8.9408,2.1844 -4.826,0 -8.9408,-2.1844 -4.1148,-2.1844 -6.756398,-6.5532 z"
         style="font-size:50.8px;fill:#ffffff;stroke-width:0.264583"
         id="path838" />
      <path
         d="m 135.95241,80.387398 v -2.336799 l 5.9436,-1.2192 v 3.352799 q 0,3.048 1.524,4.572 1.524,1.524 4.01319,1.524 2.4384,0 3.8608,-1.524 1.4224,-1.5748 1.4224,-4.318 V 55.241399 h 6.096 v 25.044399 q 0,4.9276 -3.1496,8.3312 -3.1496,3.4036 -8.1788,3.4036 -5.28319,0 -8.43279,-3.1496 -3.0988,-3.2004 -3.0988,-8.4836 z"
         style="font-size:50.8px;fill:#ffffff;stroke-width:0.264583"
         id="path840" />
      <path
         d="m 189.29235,91.258598 h -22.2504 V 55.241399 h 22.2504 v 5.6896 h -16.1544 v 9.5504 h 14.6304 v 5.5372 h -14.6304 v 9.550399 h 16.1544 z"
         style="font-size:50.8px;fill:#ffffff;stroke-width:0.264583"
         id="path842" />
      <path
         d="m 212.45708,92.020598 q -7.5692,0 -12.9032,-5.1308 -5.2832,-5.1308 -5.2832,-13.614399 0,-8.4328 5.3848,-13.6144 5.3848,-5.1816 12.7508,-5.1816 6.5024,0 10.668,3.302 4.2164,3.302 5.5372,8.382 l -5.7404,1.9304 q -0.8636,-3.5052 -3.5052,-5.6896 -2.6416,-2.1844 -6.9596,-2.1844 -4.826,0 -8.382,3.4544 -3.5052,3.4036 -3.5052,9.6012 0,6.0452 3.5052,9.499599 3.5052,3.4036 8.4328,3.4036 4.2164,0 6.9596,-2.286 2.7432,-2.286 3.7592,-5.638799 l 5.588,1.828799 q -1.3208,5.0292 -5.588,8.4836 -4.2164,3.4544 -10.7188,3.4544 z"
         style="font-size:50.8px;fill:#ffffff;stroke-width:0.264583"
         id="path844" />
      <path
         d="m 260.46296,60.981799 h -11.7348 v 30.276799 h -6.096 V 60.981799 h -11.684 v -5.7404 h 29.5148 z"
         style="font-size:50.8px;fill:#ffffff;stroke-width:0.264583"
         id="path846" />
      <path
         d="m 42.633036,149.1706 h 6.4008 q 4.9784,0 8.1788,-3.1496 3.2512,-3.2004 3.2512,-9.1948 0,-6.0452 -3.2004,-9.2456 -3.2004,-3.2512 -8.1788,-3.2512 h -6.4516 z m 6.604,5.588 h -12.7 v -36.0172 h 12.7508 q 7.62,0 12.5476,4.826 4.9784,4.826 4.9784,13.2588 0,8.382 -4.9784,13.1572 -4.9784,4.7752 -12.5984,4.7752 z"
         style="font-size:50.8px;fill:#ffffff;stroke-width:0.264583"
         id="path848" />
      <path
         d="m 95.464945,154.7586 h -22.2504 v -36.0172 h 22.2504 v 5.6896 h -16.1544 v 9.5504 h 14.6304 v 5.5372 h -14.6304 v 9.5504 h 16.1544 z"
         style="font-size:50.8px;fill:#ffffff;stroke-width:0.264583"
         id="path850" />
      <path
         d="m 102.78009,118.7414 h 12.3952 q 5.08,0 8.0264,2.6924 2.9464,2.6924 2.9464,7.0104 0,2.794 -1.4732,4.8768 -1.4732,2.032 -3.8608,2.8956 2.8956,0.762 4.6736,3.0988 1.778,2.3368 1.778,5.4864 0,4.3688 -3.0988,7.1628 -3.0988,2.794 -8.0772,2.794 h -13.3096 z m 6.0452,15.24 h 5.5372 q 2.6416,0 4.1656,-1.3716 1.524,-1.3716 1.524,-3.6576 0,-2.3368 -1.5748,-3.6576 -1.524,-1.3716 -4.2672,-1.3716 h -5.3848 z m 0,15.5956 h 6.1976 q 2.7432,0 4.3688,-1.3716 1.6764,-1.4224 1.6764,-3.81 0,-2.3876 -1.5748,-3.81 -1.524,-1.4732 -4.2672,-1.4732 h -6.4008 z"
         style="font-size:50.8px;fill:#ffffff;stroke-width:0.264583"
         id="path852" />
      <path
         d="m 156.2216,154.7586 h -22.606 v -36.0172 h 6.096 v 30.226 h 16.51 z"
         style="font-size:50.8px;fill:#ffffff;stroke-width:0.264583"
         id="path854" />
      <path
         d="m 168.00703,127.1742 q -3.556,3.4036 -3.556,9.5504 0,6.1468 3.556,9.6012 3.556,3.4036 8.4836,3.4036 4.9276,0 8.4836,-3.4036 3.6068,-3.4544 3.6068,-9.6012 0,-6.1468 -3.6068,-9.5504 -3.556,-3.4544 -8.4836,-3.4544 -4.9276,0 -8.4836,3.4544 z m -7.2136,19.6088 q -2.5908,-4.3688 -2.5908,-10.0584 0,-5.6896 2.5908,-10.0076 2.6416,-4.3688 6.7564,-6.5532 4.1148,-2.1844 8.9408,-2.1844 4.826,0 8.9408,2.1844 4.1148,2.1844 6.7564,6.5532 2.6416,4.318 2.6416,10.0076 0,5.6896 -2.6416,10.0584 -2.6416,4.3688 -6.7564,6.5532 -4.1148,2.1844 -8.9408,2.1844 -4.826,0 -8.9408,-2.1844 -4.1148,-2.1844 -6.7564,-6.5532 z"
         style="font-size:50.8px;fill:#ffffff;stroke-width:0.264583"
         id="path856" />
      <path
         d="m 224.39491,154.7586 -3.4036,-9.0424 h -15.23999 l -3.3528,9.0424 h -6.4516 l 14.0208,-36.0172 h 7.06119 l 14.0208,36.0172 z m -11.0236,-29.4132 -5.48639,14.732 h 10.97279 z"
         style="font-size:50.8px;fill:#ffffff;stroke-width:0.264583"
         id="path858" />
      <path
         d="m 258.43081,124.4818 h -11.7348 v 30.2768 h -6.096 v -30.2768 h -11.684 v -5.7404 h 29.5148 z"
         style="font-size:50.8px;fill:#ffffff;stroke-width:0.264583"
         id="path860" />
    </g>
  </g>
</svg>
